<?xml version="1.0" encoding="utf-8"?>
<!-- Uploaded to: SVG Repo, www.svgrepo.com, Generator: SVG Repo Mixer Tools -->
<svg width="800px" height="800px" viewBox="0 0 64 64" xmlns="http://www.w3.org/2000/svg">
<title>croissant-love-france-ico</title>
<g id="croissant-love-france-ico">
<circle cx="34" cy="35" r="23" style="fill:#e5efef"/>
<path d="M36.633,11.011s6.2-3.442,15.421,1.7a4.819,4.819,0,0,1,2.494,4.2h0A4.722,4.722,0,0,1,52.6,20.749c-2.522,1.811-7.252,4.383-12.714,3.29Z" style="fill:#bf7e68;stroke:#4c241d;stroke-linecap:round;stroke-linejoin:round;stroke-width:2px"/>
<path d="M9.761,37.882s-3.441,6.2,1.7,15.421a4.819,4.819,0,0,0,4.2,2.494h0A4.722,4.722,0,0,0,19.5,53.853c1.811-2.522,4.383-7.252,3.29-12.713Z" style="fill:#bf7e68;stroke:#4c241d;stroke-linecap:round;stroke-linejoin:round;stroke-width:2px"/>
<path d="M21.976,12.639l9.971-5.223A6.389,6.389,0,0,1,41.1,11.472l2.6,10.011a4.628,4.628,0,0,1-3.016,5.552l-8.113,2.7Z" style="fill:#bf7e68;stroke:#4c241d;stroke-linecap:round;stroke-linejoin:round;stroke-width:2px"/>
<path d="M11.39,23.225,6.167,33.2a6.389,6.389,0,0,0,4.056,9.149L20.234,44.94a4.628,4.628,0,0,0,5.552-3.016l2.7-8.113Z" style="fill:#bf7e68;stroke:#4c241d;stroke-linecap:round;stroke-linejoin:round;stroke-width:2px"/>
<path d="M49.864,40.1a5.052,5.052,0,0,0-3.551,1.494A5.049,5.049,0,0,0,42.762,40.1a5.6,5.6,0,0,0-5.326,5.832c0,3.221,6.214,8.748,8.877,10.693,2.664-1.945,8.878-7.472,8.878-10.693A5.6,5.6,0,0,0,49.864,40.1Z" style="fill:#f53e28;stroke:#4c241d;stroke-linecap:round;stroke-linejoin:round;stroke-width:2px"/>
<path d="M36.59,33.854,32.6,37.84a7.324,7.324,0,0,1-9.489.741L12.25,30.667a6.078,6.078,0,0,1-.72-9.211l8.677-8.677a6.077,6.077,0,0,1,9.21.72l7.915,10.866A7.322,7.322,0,0,1,36.59,33.854Z" style="fill:#bf7e68;stroke:#4c241d;stroke-linecap:round;stroke-linejoin:round;stroke-width:2px"/>
<line x1="7" y1="5" x2="7" y2="7" style="fill:none;stroke:#4c241d;stroke-linecap:round;stroke-linejoin:round;stroke-width:2px"/>
<line x1="7" y1="11" x2="7" y2="13" style="fill:none;stroke:#4c241d;stroke-linecap:round;stroke-linejoin:round;stroke-width:2px"/>
<line x1="3" y1="9" x2="5" y2="9" style="fill:none;stroke:#4c241d;stroke-linecap:round;stroke-linejoin:round;stroke-width:2px"/>
<line x1="9" y1="9" x2="11" y2="9" style="fill:none;stroke:#4c241d;stroke-linecap:round;stroke-linejoin:round;stroke-width:2px"/>
<circle cx="59.5" cy="30.5" r="2.5" style="fill:none;stroke:#4c241d;stroke-linecap:round;stroke-linejoin:round;stroke-width:2px"/>
<path d="M20.651,5.1a1.069,1.069,0,1,1-1.069-1.069A1.069,1.069,0,0,1,20.651,5.1Z" style="fill:#4c241d"/>
<path d="M29.651,58.1a1.069,1.069,0,1,1-1.069-1.069A1.069,1.069,0,0,1,29.651,58.1Z" style="fill:#4c241d"/>
<path d="M20.207,12.779,11.53,21.456a6.029,6.029,0,0,0-1.507,2.518l4.5,4.5a2,2,0,0,0,2.828-2.829,2,2,0,1,1,2.829-2.828l4.949,4.95a2,2,0,0,0,2.829-2.829L25.017,22a1.847,1.847,0,0,1,0-2.613,2.153,2.153,0,0,0,0-3.044l-.174-.174a2.536,2.536,0,0,1,0-3.587h0a2.516,2.516,0,0,0,.713-1.486A6.059,6.059,0,0,0,20.207,12.779Z" style="fill:#ffce56;stroke:#4c241d;stroke-linecap:round;stroke-linejoin:round;stroke-width:2px"/>
</g>
</svg>